<?xml version="1.0" encoding="UTF-8"?>
<svg xmlns="http://www.w3.org/2000/svg" xmlns:xlink="http://www.w3.org/1999/xlink" width="150px" height="52px" viewBox="0 0 151 52" version="1.1">
<g id="surface1">
<path style=" stroke:none;fill-rule:nonzero;fill:rgb(0%,0%,0%);fill-opacity:1;" d="M 86.679688 27.644531 L 88.238281 27.644531 C 88.238281 29.378906 88.527344 31.375 88.941406 32.882812 C 89.328125 34.261719 90.335938 35.5625 91.222656 36.546875 C 92.867188 38.445312 95.742188 39.519531 98.890625 39.519531 C 101.152344 39.519531 103.25 38.734375 104.644531 37.601562 C 106.125 36.386719 107.070312 34.632812 107.070312 32.53125 C 107.070312 30.777344 106.332031 29.171875 105.339844 28.160156 C 104.332031 27.148438 102.132812 25.667969 99.585938 24.675781 L 95.925781 23.273438 C 92.84375 22.082031 90.132812 20.242188 88.773438 18.554688 C 87.414062 16.84375 86.511719 14.347656 86.511719 11.898438 C 86.511719 8.414062 87.925781 5.570312 90.332031 3.511719 C 92.738281 1.46875 96.601562 0.375 101.152344 0.375 C 106.3125 0.375 109.890625 1.242188 113.359375 3.429688 L 113.359375 12.4375 L 111.964844 12.4375 C 111.964844 11.734375 111.78125 11.039062 111.78125 10.6875 C 111.78125 10.171875 111.617188 9.636719 111.617188 9.285156 C 111.617188 8.933594 111.269531 8.582031 111.269531 8.238281 C 110.917969 7.371094 110.382812 6.242188 109.707031 5.269531 C 108.042969 2.8125 105.167969 1.429688 102.015625 1.429688 C 99.933594 1.429688 97.90625 2.089844 96.609375 3.164062 C 95.210938 4.300781 94.535156 6.152344 94.535156 8.066406 C 94.535156 9.632812 95.046875 11.121094 95.933594 12.085938 C 96.878906 13.136719 98.871094 14.253906 101.320312 15.238281 L 104.652344 16.621094 C 108.085938 18.019531 110.921875 19.851562 112.488281 21.523438 C 114.15625 23.273438 115.101562 25.703125 115.101562 28.511719 C 115.101562 32.015625 113.703125 35.1875 110.929688 37.25 C 108.171875 39.3125 104.308594 40.566406 99.597656 40.566406 C 97.316406 40.566406 94.253906 40.132812 90.875 39.511719 C 89.6875 39.304688 88.101562 38.914062 86.679688 38.320312 Z M 120.125 27.644531 L 121.6875 27.644531 C 121.6875 29.378906 121.972656 31.375 122.386719 32.882812 C 122.777344 34.261719 123.785156 35.5625 124.667969 36.546875 C 126.316406 38.445312 129.191406 39.519531 132.335938 39.519531 C 134.597656 39.519531 136.695312 38.734375 138.09375 37.601562 C 139.570312 36.386719 140.515625 34.632812 140.515625 32.53125 C 140.515625 30.777344 139.777344 29.171875 138.789062 28.160156 C 137.78125 27.148438 135.582031 25.667969 133.03125 24.675781 L 129.371094 23.273438 C 126.289062 22.082031 123.578125 20.242188 122.21875 18.554688 C 120.859375 16.84375 119.957031 14.347656 119.957031 11.898438 C 119.957031 8.414062 121.371094 5.570312 123.785156 3.511719 C 126.191406 1.46875 130.054688 0.375 134.597656 0.375 C 139.757812 0.375 143.335938 1.242188 146.8125 3.429688 L 146.8125 12.4375 L 145.417969 12.4375 C 145.417969 11.734375 145.234375 11.039062 145.234375 10.6875 C 145.234375 10.171875 145.070312 9.636719 145.070312 9.285156 C 145.070312 8.933594 144.722656 8.582031 144.722656 8.238281 C 144.371094 7.371094 143.835938 6.242188 143.160156 5.269531 C 141.496094 2.8125 138.613281 1.429688 135.46875 1.429688 C 133.386719 1.429688 131.359375 2.089844 130.0625 3.164062 C 128.664062 4.300781 127.988281 6.152344 127.988281 8.066406 C 127.988281 9.632812 128.5 11.121094 129.386719 12.085938 C 130.332031 13.136719 132.324219 14.253906 134.773438 15.238281 L 138.105469 16.621094 C 141.539062 18.019531 144.375 19.851562 145.941406 21.523438 C 147.609375 23.273438 148.554688 25.703125 148.554688 28.511719 C 148.554688 32.015625 147.15625 35.1875 144.382812 37.25 C 141.625 39.3125 137.761719 40.566406 133.050781 40.566406 C 130.769531 40.566406 127.707031 40.132812 124.328125 39.511719 C 123.140625 39.304688 121.554688 38.914062 120.132812 38.320312 Z M 61.5625 0 C 66.789062 0 71.332031 1.5625 74.636719 4.371094 C 79 7.855469 81.261719 13.457031 81.261719 20.796875 C 81.261719 23.59375 80.746094 26.214844 80.046875 28.667969 C 79.160156 31.097656 77.785156 33.390625 76.199219 34.953125 C 72.722656 38.621094 67.667969 40.535156 61.027344 40.535156 C 54.9375 40.535156 50.042969 38.785156 46.734375 35.296875 C 43.242188 31.796875 41.511719 26.558594 41.511719 20.089844 C 41.511719 13.808594 43.242188 8.902344 46.734375 5.417969 C 50.238281 1.914062 55.292969 0 61.5625 0 Z M 61.582031 1.046875 C 58.085938 1.046875 55.292969 2.945312 53.5625 6.449219 C 52.167969 9.417969 51.257812 14.160156 51.257812 20.089844 C 51.257812 26.566406 52.160156 31.425781 53.5625 34.394531 C 55.125 37.734375 57.71875 39.460938 61.050781 39.460938 C 68.042969 39.460938 71.492188 33.03125 71.492188 20.417969 C 71.492188 13.78125 70.628906 8.878906 69.070312 5.910156 C 68.367188 4.507812 67.132812 3.308594 65.738281 2.40625 C 64.378906 1.539062 62.773438 1.042969 61.375 1.042969 L 61.582031 1.042969 Z M 24.238281 20.128906 C 28.085938 20.128906 31.394531 20.996094 33.472656 22.746094 C 35.574219 24.335938 36.617188 26.765625 36.617188 29.734375 C 36.617188 31.488281 36.105469 33.238281 35.402344 34.640625 C 34.519531 36.039062 33.121094 37.441406 31.558594 38.144531 C 30.054688 38.765625 28.46875 39.179688 26.847656 39.359375 C 25.097656 39.710938 22.484375 39.875 19.359375 39.875 L 2.445312 39.875 L 2.445312 38.820312 L 6.617188 38.820312 L 6.617188 1.78125 L 2.445312 1.78125 L 2.445312 0.734375 L 19.019531 0.734375 C 21.445312 0.734375 23.730469 0.898438 25.453125 1.085938 C 28.4375 1.4375 30.863281 2.46875 32.609375 4.054688 C 34.355469 5.621094 35.222656 7.886719 35.222656 10.53125 C 35.222656 14.015625 33.660156 16.632812 30.699219 18.214844 C 29.300781 18.917969 27.039062 19.613281 24.058594 19.777344 Z M 15.707031 38.820312 L 18.339844 38.820312 C 20.066406 38.820312 21.464844 38.65625 22.492188 38.449219 C 23.589844 38.097656 24.558594 37.445312 25.285156 36.554688 C 26.519531 34.984375 27.222656 32.71875 27.222656 29.917969 C 27.222656 26.949219 26.519531 24.480469 25.285156 23.074219 C 24.585938 22.371094 23.726562 21.675781 22.699219 21.339844 C 21.628906 20.972656 19.90625 20.636719 18.132812 20.636719 L 15.707031 20.636719 Z M 15.707031 19.613281 L 18.132812 19.613281 C 20.601562 19.613281 22.699219 18.910156 23.890625 17.511719 C 25.121094 16.109375 25.824219 13.84375 25.824219 10.667969 C 25.824219 8.238281 25.292969 5.972656 24.425781 4.566406 C 23.894531 3.492188 23.03125 2.792969 22.167969 2.460938 C 21.09375 2.089844 19.535156 1.757812 17.804688 1.757812 L 15.707031 1.757812 Z M 2.988281 51.90625 L 2.988281 46.957031 L 3.605469 46.957031 L 3.605469 49.019531 L 6.199219 49.019531 L 6.199219 46.957031 L 6.8125 46.957031 L 6.8125 51.90625 L 6.199219 51.90625 L 6.199219 49.59375 L 3.605469 49.59375 L 3.605469 51.90625 Z M 24.558594 46.964844 L 25.171875 46.964844 L 25.171875 49.828125 C 25.171875 50.324219 25.109375 50.730469 25.011719 51 C 24.886719 51.296875 24.671875 51.542969 24.394531 51.703125 C 24.109375 51.886719 23.71875 51.992188 23.242188 51.992188 C 22.792969 51.992188 22.398438 51.910156 22.109375 51.769531 C 21.835938 51.609375 21.613281 51.367188 21.496094 51.066406 C 21.421875 50.902344 21.375 50.726562 21.351562 50.550781 C 21.328125 50.3125 21.3125 50.066406 21.308594 49.828125 L 21.308594 46.964844 L 21.921875 46.964844 L 21.921875 49.828125 C 21.921875 50.261719 21.964844 50.59375 22.023438 50.777344 C 22.101562 50.984375 22.246094 51.144531 22.453125 51.246094 C 22.660156 51.351562 22.90625 51.410156 23.175781 51.410156 C 23.667969 51.410156 24.019531 51.308594 24.222656 51.101562 C 24.425781 50.894531 24.546875 50.441406 24.546875 49.820312 Z M 41.917969 49.972656 L 41.917969 49.394531 L 44 49.394531 L 44 51.226562 C 43.671875 51.472656 43.339844 51.679688 43.007812 51.804688 C 42.675781 51.929688 42.308594 51.992188 41.960938 51.992188 C 41.511719 52 41.074219 51.898438 40.664062 51.703125 C 40.285156 51.511719 39.976562 51.195312 39.78125 50.820312 C 39.574219 50.410156 39.46875 49.960938 39.476562 49.5 C 39.476562 49.023438 39.574219 48.570312 39.761719 48.15625 C 39.96875 47.742188 40.257812 47.433594 40.628906 47.226562 C 40.996094 47.019531 41.429688 46.921875 41.925781 46.921875 C 42.277344 46.921875 42.601562 46.984375 42.890625 47.082031 C 43.175781 47.210938 43.402344 47.371094 43.546875 47.578125 C 43.710938 47.785156 43.835938 48.050781 43.917969 48.382812 L 43.339844 48.527344 C 43.277344 48.300781 43.175781 48.09375 43.070312 47.96875 C 42.964844 47.84375 42.800781 47.722656 42.601562 47.636719 C 42.386719 47.542969 42.15625 47.5 41.925781 47.492188 C 41.636719 47.492188 41.367188 47.535156 41.167969 47.617188 C 40.960938 47.699219 40.777344 47.824219 40.632812 47.988281 C 40.503906 48.132812 40.402344 48.300781 40.328125 48.484375 C 40.203125 48.792969 40.140625 49.117188 40.140625 49.449219 C 40.140625 49.882812 40.222656 50.253906 40.347656 50.542969 C 40.488281 50.832031 40.714844 51.078125 41.003906 51.203125 C 41.292969 51.328125 41.617188 51.410156 41.949219 51.410156 C 42.21875 51.410156 42.507812 51.347656 42.75 51.265625 C 43.019531 51.160156 43.246094 51.019531 43.390625 50.894531 L 43.390625 49.964844 Z M 58.136719 49.519531 C 58.136719 48.714844 58.363281 48.074219 58.777344 47.625 C 59.207031 47.171875 59.785156 46.921875 60.480469 46.921875 C 60.929688 46.921875 61.34375 47.046875 61.695312 47.253906 C 62.046875 47.460938 62.335938 47.785156 62.515625 48.15625 C 62.722656 48.527344 62.824219 48.980469 62.824219 49.476562 C 62.824219 49.972656 62.722656 50.425781 62.515625 50.792969 C 62.308594 51.183594 62.023438 51.496094 61.671875 51.679688 C 61.300781 51.886719 60.886719 51.988281 60.480469 51.988281 C 60.046875 51.988281 59.621094 51.875 59.246094 51.65625 C 58.882812 51.449219 58.59375 51.132812 58.425781 50.75 C 58.238281 50.375 58.136719 49.953125 58.136719 49.53125 Z M 58.796875 49.539062 C 58.796875 50.117188 58.957031 50.570312 59.265625 50.902344 C 59.570312 51.234375 59.984375 51.417969 60.457031 51.417969 C 60.949219 51.417969 61.359375 51.253906 61.671875 50.921875 C 61.996094 50.585938 62.164062 50.089844 62.164062 49.476562 C 62.164062 49.085938 62.085938 48.734375 61.960938 48.445312 C 61.832031 48.15625 61.609375 47.90625 61.363281 47.742188 C 61.121094 47.578125 60.804688 47.5 60.480469 47.5 C 60.03125 47.5 59.617188 47.660156 59.289062 47.96875 C 58.964844 48.277344 58.796875 48.816406 58.796875 49.539062 Z M 88.195312 51.90625 L 88.195312 46.957031 L 90.023438 46.957031 C 90.394531 46.957031 90.699219 47.019531 90.90625 47.101562 C 91.132812 47.203125 91.316406 47.371094 91.441406 47.574219 C 91.566406 47.78125 91.648438 48.027344 91.648438 48.234375 C 91.648438 48.441406 91.585938 48.667969 91.484375 48.828125 C 91.347656 49.03125 91.164062 49.1875 90.953125 49.300781 C 91.238281 49.382812 91.484375 49.527344 91.652344 49.734375 C 91.816406 49.941406 91.898438 50.203125 91.898438 50.472656 C 91.898438 50.699219 91.835938 50.925781 91.753906 51.113281 C 91.679688 51.296875 91.558594 51.460938 91.402344 51.59375 C 91.257812 51.691406 91.050781 51.773438 90.84375 51.816406 C 90.636719 51.863281 90.351562 51.898438 90.042969 51.898438 Z M 88.816406 49.0625 L 89.886719 49.0625 C 90.175781 49.0625 90.402344 49.042969 90.527344 49.019531 C 90.675781 48.980469 90.8125 48.878906 90.894531 48.746094 C 90.9375 48.691406 90.976562 48.628906 91 48.566406 C 91.019531 48.484375 91.039062 48.402344 91.039062 48.320312 C 91.039062 48.15625 91 48.011719 90.921875 47.886719 C 90.839844 47.761719 90.714844 47.660156 90.570312 47.617188 C 90.425781 47.574219 90.164062 47.535156 89.8125 47.535156 L 88.820312 47.535156 Z M 88.816406 51.328125 L 90.050781 51.328125 C 90.257812 51.328125 90.417969 51.308594 90.5 51.308594 C 90.644531 51.289062 90.789062 51.226562 90.871094 51.183594 C 90.988281 51.128906 91.082031 51.03125 91.140625 50.914062 C 91.203125 50.789062 91.238281 50.644531 91.238281 50.480469 C 91.238281 50.316406 91.175781 50.152344 91.097656 50.027344 C 91.015625 49.902344 90.851562 49.785156 90.683594 49.738281 C 90.519531 49.675781 90.25 49.640625 89.960938 49.640625 L 88.808594 49.640625 L 88.808594 51.328125 Z M 106.664062 49.519531 C 106.664062 48.714844 106.890625 48.074219 107.300781 47.625 C 107.734375 47.171875 108.3125 46.921875 109.007812 46.921875 C 109.457031 46.921875 109.871094 47.046875 110.222656 47.253906 C 110.574219 47.460938 110.859375 47.785156 111.046875 48.15625 C 111.253906 48.527344 111.355469 48.980469 111.355469 49.476562 C 111.355469 49.972656 111.253906 50.425781 111.046875 50.792969 C 110.84375 51.183594 110.554688 51.496094 110.203125 51.679688 C 109.832031 51.886719 109.417969 51.988281 109.011719 51.988281 C 108.582031 51.988281 108.15625 51.875 107.777344 51.65625 C 107.414062 51.449219 107.125 51.132812 106.957031 50.75 C 106.769531 50.375 106.667969 49.953125 106.667969 49.53125 Z M 107.320312 49.539062 C 107.320312 50.117188 107.484375 50.570312 107.789062 50.902344 C 108.097656 51.234375 108.511719 51.417969 108.980469 51.417969 C 109.476562 51.417969 109.890625 51.253906 110.195312 50.921875 C 110.527344 50.585938 110.691406 50.089844 110.691406 49.476562 C 110.691406 49.085938 110.609375 48.734375 110.484375 48.445312 C 110.359375 48.15625 110.132812 47.90625 109.890625 47.742188 C 109.644531 47.578125 109.332031 47.5 109.007812 47.5 C 108.554688 47.5 108.140625 47.660156 107.816406 47.96875 C 107.484375 48.28125 107.320312 48.816406 107.320312 49.539062 Z M 126.007812 50.34375 L 126.628906 50.296875 C 126.648438 50.523438 126.730469 50.730469 126.808594 50.875 C 126.910156 51.039062 127.097656 51.183594 127.324219 51.265625 C 127.425781 51.308594 127.550781 51.367188 127.675781 51.367188 C 127.800781 51.382812 127.945312 51.410156 128.0625 51.410156 C 128.308594 51.410156 128.53125 51.367188 128.722656 51.308594 C 128.902344 51.246094 129.070312 51.144531 129.152344 51.019531 C 129.234375 50.894531 129.296875 50.730469 129.296875 50.585938 C 129.296875 50.441406 129.253906 50.296875 129.171875 50.199219 C 129.089844 50.074219 128.929688 49.972656 128.722656 49.890625 C 128.433594 49.800781 128.144531 49.726562 127.855469 49.664062 C 127.40625 49.5625 127.054688 49.4375 126.890625 49.355469 C 126.667969 49.230469 126.476562 49.066406 126.378906 48.90625 C 126.265625 48.714844 126.207031 48.503906 126.214844 48.28125 C 126.214844 48.039062 126.296875 47.8125 126.421875 47.605469 C 126.546875 47.398438 126.773438 47.214844 127.015625 47.109375 C 127.300781 46.984375 127.613281 46.921875 127.917969 46.921875 C 128.269531 46.921875 128.597656 46.984375 128.863281 47.082031 C 129.152344 47.210938 129.378906 47.390625 129.503906 47.625 C 129.660156 47.84375 129.75 48.113281 129.75 48.382812 L 129.128906 48.445312 C 129.109375 48.136719 128.984375 47.886719 128.800781 47.742188 C 128.613281 47.578125 128.308594 47.5 127.9375 47.5 C 127.570312 47.5 127.261719 47.578125 127.097656 47.707031 C 126.9375 47.851562 126.828125 48.03125 126.828125 48.238281 C 126.828125 48.402344 126.890625 48.570312 127.015625 48.671875 C 127.140625 48.777344 127.46875 48.898438 127.980469 49.023438 C 128.496094 49.148438 128.863281 49.25 129.070312 49.332031 C 129.359375 49.457031 129.585938 49.640625 129.710938 49.847656 C 129.753906 49.929688 129.8125 50.054688 129.855469 50.152344 C 129.898438 50.28125 129.917969 50.398438 129.917969 50.523438 C 129.917969 50.769531 129.835938 51.039062 129.691406 51.265625 C 129.535156 51.496094 129.316406 51.6875 129.054688 51.800781 C 128.746094 51.925781 128.421875 51.988281 128.089844 51.988281 C 127.65625 51.988281 127.261719 51.925781 126.980469 51.800781 C 126.699219 51.679688 126.453125 51.480469 126.277344 51.222656 C 126.191406 51.089844 126.121094 50.953125 126.070312 50.808594 C 126.035156 50.664062 126.007812 50.5 126.007812 50.34375 Z M 144.640625 50.34375 L 145.257812 50.296875 C 145.277344 50.523438 145.359375 50.730469 145.441406 50.875 C 145.542969 51.039062 145.730469 51.183594 145.953125 51.265625 C 146.054688 51.308594 146.179688 51.367188 146.304688 51.367188 C 146.429688 51.382812 146.574219 51.410156 146.695312 51.410156 C 146.9375 51.410156 147.164062 51.367188 147.351562 51.308594 C 147.535156 51.246094 147.703125 51.144531 147.785156 51.019531 C 147.867188 50.894531 147.929688 50.730469 147.929688 50.585938 C 147.929688 50.441406 147.882812 50.296875 147.804688 50.199219 C 147.722656 50.074219 147.558594 49.972656 147.351562 49.890625 C 147.0625 49.800781 146.777344 49.726562 146.488281 49.664062 C 146.035156 49.5625 145.6875 49.4375 145.523438 49.355469 C 145.296875 49.230469 145.109375 49.066406 145.007812 48.90625 C 144.902344 48.714844 144.839844 48.503906 144.847656 48.28125 C 144.847656 48.039062 144.925781 47.8125 145.054688 47.605469 C 145.179688 47.398438 145.402344 47.214844 145.648438 47.109375 C 145.929688 46.984375 146.242188 46.921875 146.550781 46.921875 C 146.902344 46.921875 147.226562 46.984375 147.496094 47.082031 C 147.785156 47.210938 148.011719 47.390625 148.136719 47.625 C 148.292969 47.84375 148.378906 48.113281 148.378906 48.382812 L 147.757812 48.445312 C 147.742188 48.136719 147.613281 47.886719 147.433594 47.742188 C 147.246094 47.578125 146.9375 47.5 146.570312 47.5 C 146.199219 47.5 145.890625 47.578125 145.730469 47.707031 C 145.566406 47.851562 145.460938 48.03125 145.460938 48.238281 C 145.460938 48.402344 145.523438 48.570312 145.640625 48.671875 C 145.765625 48.777344 146.09375 48.898438 146.605469 49.023438 C 147.121094 49.148438 147.488281 49.25 147.695312 49.332031 C 147.984375 49.457031 148.210938 49.640625 148.335938 49.847656 C 148.378906 49.929688 148.4375 50.054688 148.480469 50.152344 C 148.523438 50.28125 148.542969 50.398438 148.542969 50.523438 C 148.542969 50.769531 148.460938 51.039062 148.316406 51.265625 C 148.160156 51.496094 147.941406 51.6875 147.679688 51.800781 C 147.371094 51.925781 147.046875 51.988281 146.714844 51.988281 C 146.28125 51.988281 145.886719 51.925781 145.605469 51.800781 C 145.324219 51.679688 145.078125 51.480469 144.902344 51.222656 C 144.816406 51.089844 144.746094 50.953125 144.695312 50.808594 C 144.660156 50.664062 144.640625 50.5 144.640625 50.34375 Z M 144.640625 50.34375 "/>
</g>
</svg>
