<?xml version="1.0" encoding="UTF-8"?>
<svg xmlns="http://www.w3.org/2000/svg" xmlns:xlink="http://www.w3.org/1999/xlink" width="150px" height="99px" viewBox="0 0 149 99" version="1.1">
<g id="surface1">
<path style=" stroke:none;fill-rule:nonzero;fill:rgb(0%,0%,0%);fill-opacity:1;" d="M 10.65625 98.976562 C 10.59375 98.972656 10.378906 98.949219 10.179688 98.929688 C 8.363281 98.746094 6.425781 98 4.898438 96.898438 C 2.613281 95.246094 1.003906 92.84375 0.332031 90.078125 C -0.0273438 88.609375 -0.0976562 86.964844 0.132812 85.453125 C 0.742188 81.394531 3.417969 77.917969 7.125 76.355469 C 8.050781 75.96875 8.96875 75.722656 10.050781 75.570312 C 10.648438 75.488281 12.109375 75.488281 12.714844 75.570312 C 13.996094 75.746094 15.085938 76.070312 16.203125 76.613281 C 17.429688 77.210938 18.28125 77.824219 19.3125 78.859375 C 20.210938 79.761719 20.765625 80.515625 21.410156 81.703125 L 21.546875 81.957031 L 21.0625 82.316406 C 20.394531 82.816406 18.824219 83.9375 18.3125 84.289062 L 17.890625 84.574219 L 17.714844 84.195312 C 17.5 83.726562 17.347656 83.449219 17.101562 83.078125 C 16.109375 81.597656 14.53125 80.535156 12.8125 80.199219 C 11.902344 80.023438 10.78125 80.042969 9.882812 80.253906 C 8.941406 80.472656 7.917969 80.964844 7.136719 81.578125 C 6.824219 81.824219 6.242188 82.402344 5.988281 82.722656 C 4.609375 84.453125 4.105469 86.660156 4.574219 88.863281 C 4.738281 89.625 5.164062 90.621094 5.605469 91.28125 C 6.773438 93.035156 8.5625 94.15625 10.589844 94.40625 C 10.949219 94.453125 11.8125 94.453125 12.171875 94.40625 C 13.96875 94.183594 15.628906 93.246094 16.761719 91.816406 C 17.097656 91.394531 17.328125 91.03125 17.59375 90.511719 C 17.710938 90.285156 17.816406 90.101562 17.828125 90.101562 C 17.839844 90.101562 18.667969 90.6875 19.664062 91.402344 L 21.480469 92.703125 L 21.296875 93.050781 C 20.914062 93.777344 20.257812 94.6875 19.644531 95.34375 C 18.605469 96.453125 17.589844 97.210938 16.265625 97.859375 C 15.125 98.417969 13.917969 98.773438 12.632812 98.933594 C 12.34375 98.96875 10.863281 99 10.65625 98.976562 Z M 26.1875 87.128906 L 26.1875 75.722656 L 30.59375 75.722656 L 30.59375 83.910156 L 42.109375 83.910156 L 42.109375 75.722656 L 46.519531 75.722656 L 46.519531 98.535156 L 42.109375 98.535156 L 42.109375 88.5 L 30.59375 88.5 L 30.59375 98.535156 L 26.1875 98.535156 Z M 50.972656 96.511719 C 51.464844 95.402344 53.730469 90.269531 56.011719 85.109375 L 60.15625 75.722656 L 63.246094 75.726562 L 66.339844 75.726562 L 71.351562 86.988281 C 74.105469 93.183594 76.386719 98.316406 76.421875 98.394531 L 76.484375 98.535156 L 71.207031 98.535156 L 69.167969 94.011719 L 57.371094 94.027344 L 55.355469 98.535156 L 50.078125 98.535156 Z M 67.304688 89.410156 C 67.285156 89.332031 63.28125 80.347656 63.261719 80.347656 C 63.25 80.347656 59.449219 89.253906 59.386719 89.425781 C 59.378906 89.445312 60.902344 89.457031 63.34375 89.457031 C 66.722656 89.457031 67.3125 89.449219 67.304688 89.410156 Z M 80.042969 87.128906 L 80.042969 75.722656 L 83.144531 75.726562 L 86.242188 75.726562 L 91.097656 82.566406 L 95.949219 89.402344 L 95.964844 75.722656 L 100.40625 75.722656 L 100.40625 98.535156 L 96.84375 98.519531 L 90.6875 89.945312 C 87.300781 85.230469 84.523438 81.371094 84.507812 81.371094 C 84.496094 81.371094 84.484375 85.230469 84.484375 89.953125 L 84.484375 98.535156 L 80.042969 98.535156 Z M 108.433594 87.128906 L 108.433594 75.722656 L 124.324219 75.722656 L 124.324219 80.3125 L 112.875 80.3125 L 112.875 84.867188 L 123.46875 84.867188 L 123.46875 89.457031 L 112.875 89.457031 L 112.875 94.011719 L 125.96875 94.011719 L 125.96875 98.535156 L 108.433594 98.535156 Z M 132.1875 87.128906 L 132.1875 75.722656 L 136.628906 75.722656 L 136.628906 94.011719 L 149 94.011719 L 149 98.535156 L 132.1875 98.535156 Z M 56.078125 69.921875 C 51.332031 69.703125 46.046875 68.257812 41.785156 66.011719 C 38.515625 64.292969 35.925781 62.363281 33.210938 59.636719 C 31.082031 57.496094 29.511719 55.527344 28.183594 53.332031 L 27.605469 52.371094 L 28.429688 51.929688 C 30.035156 51.074219 37.363281 47.308594 37.421875 47.308594 C 37.453125 47.308594 37.753906 47.722656 38.09375 48.230469 C 41.910156 53.941406 47.882812 57.65625 54.875 58.664062 C 56.097656 58.84375 59.773438 58.8125 61.101562 58.617188 C 62.582031 58.398438 64.359375 57.992188 65.488281 57.617188 C 65.5625 57.59375 65.421875 57.363281 65.097656 56.984375 C 62.597656 54.027344 60.320312 49.972656 59.039062 46.195312 C 56.722656 39.363281 56.558594 32.03125 58.566406 25.140625 C 59.8125 20.863281 61.960938 16.710938 64.679688 13.316406 C 65.085938 12.8125 65.417969 12.367188 65.417969 12.328125 C 65.417969 12.191406 63.292969 11.625 61.902344 11.386719 C 59.753906 11.023438 56.390625 10.976562 54.445312 11.289062 C 51.175781 11.8125 47.859375 13.039062 45.265625 14.6875 C 42.378906 16.519531 39.96875 18.878906 38.046875 21.753906 L 37.195312 23.023438 L 36.117188 22.457031 C 35.523438 22.144531 33.316406 20.996094 31.210938 19.90625 C 29.105469 18.816406 27.378906 17.917969 27.371094 17.910156 C 27.335938 17.878906 28.65625 15.777344 29.195312 14.996094 C 30.84375 12.621094 33.765625 9.476562 35.925781 7.753906 C 41.574219 3.257812 47.851562 0.722656 54.917969 0.0898438 C 56.230469 -0.0273438 59.480469 -0.0273438 60.746094 0.0898438 C 65.234375 0.503906 69.082031 1.59375 73.054688 3.582031 L 74.953125 4.53125 L 75.589844 4.167969 C 76.617188 3.582031 78.441406 2.738281 79.828125 2.203125 C 83.71875 0.710938 87.636719 -0.00390625 91.964844 0 C 94.988281 0 97.507812 0.300781 100.246094 0.980469 C 106.429688 2.511719 111.703125 5.457031 116.25 9.90625 C 118.710938 12.320312 120.640625 14.785156 122.203125 17.507812 L 122.4375 17.917969 L 118.59375 19.910156 C 116.476562 21.003906 114.265625 22.152344 113.675781 22.460938 L 112.605469 23.027344 L 111.796875 21.800781 C 107.804688 15.753906 101.269531 11.820312 94.117188 11.152344 C 92 10.953125 88.859375 11.132812 86.945312 11.566406 C 85.964844 11.789062 84.367188 12.246094 84.367188 12.304688 C 84.367188 12.335938 84.628906 12.683594 84.949219 13.078125 C 89.046875 18.121094 91.605469 24.273438 92.429688 31.0625 C 92.628906 32.683594 92.65625 36.824219 92.476562 38.429688 C 91.730469 45.207031 89.175781 51.460938 85.101562 56.496094 C 84.175781 57.636719 84.214844 57.558594 84.511719 57.671875 C 84.652344 57.726562 85.308594 57.90625 85.96875 58.074219 C 89.324219 58.929688 92.9375 59.050781 96.332031 58.421875 C 102.503906 57.277344 108.0625 53.617188 111.636719 48.335938 C 111.96875 47.847656 112.269531 47.410156 112.304688 47.371094 C 112.339844 47.332031 113.164062 47.699219 114.136719 48.1875 C 116.0625 49.15625 122.097656 52.289062 122.164062 52.355469 C 122.273438 52.464844 120.347656 55.328125 119.167969 56.816406 C 118.050781 58.226562 115.125 61.160156 113.726562 62.273438 C 108.671875 66.292969 103 68.75 96.75 69.625 C 89.578125 70.632812 81.980469 69.285156 75.796875 65.90625 L 74.925781 65.429688 L 73.839844 66.003906 C 68.472656 68.855469 62.3125 70.210938 56.078125 69.921875 Z M 76.117188 50.121094 C 79.109375 46.40625 80.976562 41.898438 81.4375 37.28125 C 81.589844 35.730469 81.5 32.570312 81.257812 31.160156 C 80.597656 27.273438 79.179688 23.945312 76.898438 20.902344 C 76.46875 20.328125 75.839844 19.5625 75.503906 19.199219 L 74.894531 18.539062 L 74.328125 19.15625 C 73.585938 19.96875 72.339844 21.625 71.714844 22.640625 C 68.535156 27.800781 67.496094 34.140625 68.84375 40.175781 C 69.691406 43.972656 71.640625 47.800781 74.265625 50.820312 L 74.871094 51.519531 L 75.136719 51.265625 C 75.28125 51.128906 75.722656 50.613281 76.117188 50.121094 Z M 76.117188 50.121094 "/>
</g>
</svg>
