<?xml version="1.0" encoding="UTF-8"?>
<svg xmlns="http://www.w3.org/2000/svg" xmlns:xlink="http://www.w3.org/1999/xlink" width="150px" height="72px" viewBox="0 0 149 72" version="1.1">
<g id="surface1">
<path style=" stroke:none;fill-rule:nonzero;fill:rgb(0%,0%,0%);fill-opacity:1;" d="M 0 2.074219 L 15.828125 2.074219 C 19.613281 2.074219 23.34375 2.363281 27.011719 2.992188 C 30.683594 3.566406 34.125 5.171875 37.335938 7.753906 C 40.375 10.332031 42.726562 13.601562 44.449219 17.5625 C 46.167969 21.519531 47.085938 25.589844 47.257812 29.835938 C 47.316406 30.121094 47.316406 30.40625 47.316406 30.753906 L 47.316406 32.300781 C 47.257812 36.660156 46.339844 40.902344 44.621094 44.976562 C 42.898438 49.046875 40.433594 52.433594 37.105469 55.070312 C 34.179688 57.191406 31.085938 58.570312 27.757812 59.199219 C 24.488281 59.832031 21.046875 60.230469 17.605469 60.347656 L 0 60.347656 Z M 11.585938 49.851562 C 11.988281 49.851562 12.386719 49.851562 12.847656 49.910156 L 15.199219 49.910156 C 15.601562 49.964844 15.886719 50.023438 16.230469 50.023438 L 17.207031 50.023438 C 17.777344 50.023438 18.296875 49.964844 18.867188 49.964844 C 19.441406 49.964844 20.015625 49.910156 20.589844 49.851562 C 22.308594 49.679688 23.972656 49.390625 25.636719 48.933594 C 27.242188 48.417969 28.675781 47.730469 29.878906 46.695312 C 31.714844 45.148438 33.148438 42.96875 34.066406 40.332031 C 35.042969 37.632812 35.558594 34.882812 35.558594 32.015625 L 35.558594 30.808594 C 35.558594 27.941406 35.042969 25.1875 34.125 22.550781 C 33.207031 19.855469 31.832031 17.675781 30.050781 16.011719 C 28.734375 14.808594 27.242188 13.949219 25.523438 13.488281 C 23.859375 13.03125 22.082031 12.800781 20.246094 12.6875 C 19.84375 12.628906 19.441406 12.628906 19.039062 12.628906 L 11.585938 12.628906 Z M 79.949219 59.429688 L 76.449219 55.242188 C 74.902344 56.617188 73.179688 57.765625 71.171875 58.683594 C 69.222656 59.601562 67.160156 60.117188 65.152344 60.289062 C 64.921875 60.289062 64.75 60.347656 64.519531 60.347656 L 63.890625 60.347656 C 63.429688 60.347656 63.03125 60.289062 62.570312 60.289062 L 61.195312 60.117188 C 60.335938 59.945312 59.472656 59.714844 58.554688 59.429688 C 57.695312 59.085938 56.894531 58.683594 56.089844 58.226562 C 54.65625 57.25 53.507812 55.929688 52.648438 54.324219 C 51.789062 52.71875 51.214844 51.054688 51.042969 49.390625 L 51.042969 47.269531 C 51.042969 47.210938 51.101562 47.15625 51.101562 47.15625 C 51.15625 47.039062 51.15625 47.039062 51.15625 46.925781 L 51.15625 46.640625 C 51.214844 46.523438 51.214844 46.410156 51.214844 46.351562 C 51.675781 43.828125 52.707031 41.765625 54.371094 40.101562 C 56.089844 38.4375 57.925781 37.003906 59.933594 35.742188 C 58.671875 34.367188 57.640625 32.929688 56.835938 31.382812 C 55.976562 29.890625 55.574219 28.285156 55.574219 26.679688 C 55.574219 26.335938 55.574219 26.050781 55.632812 25.648438 C 55.6875 25.359375 55.6875 25.015625 55.746094 24.730469 L 55.917969 24.042969 C 55.976562 23.8125 56.035156 23.582031 56.089844 23.410156 C 56.777344 21.175781 58.15625 19.566406 60.164062 18.59375 C 62.167969 17.5625 64.292969 17.042969 66.527344 17.042969 C 69.394531 17.042969 71.976562 17.789062 74.328125 19.339844 C 76.679688 20.886719 77.882812 23.125 77.882812 26.105469 L 77.882812 26.851562 C 77.710938 28.6875 77.023438 30.292969 75.820312 31.667969 C 74.613281 32.988281 73.355469 34.195312 71.976562 35.28125 C 71.632812 35.457031 71.347656 35.628906 71.058594 35.855469 C 70.773438 36.085938 70.484375 36.257812 70.199219 36.488281 L 77.3125 44.804688 C 77.710938 44.460938 78.054688 44.058594 78.402344 43.714844 C 78.800781 43.371094 79.089844 43.027344 79.433594 42.625 C 80.121094 41.9375 80.867188 41.191406 81.554688 40.445312 C 82.242188 39.699219 82.929688 38.953125 83.5625 38.207031 L 88.324219 43.199219 C 87.75 43.773438 87.234375 44.34375 86.660156 44.917969 C 86.144531 45.433594 85.625 46.007812 85.109375 46.640625 C 84.480469 47.15625 83.964844 47.730469 83.390625 48.304688 C 82.875 48.875 82.359375 49.449219 81.839844 49.964844 L 89.640625 59.429688 Z M 59.761719 50.652344 C 60.21875 51.226562 60.679688 51.742188 61.078125 52.144531 C 61.539062 52.546875 61.996094 52.832031 62.457031 53.0625 C 62.914062 53.351562 63.375 53.523438 63.832031 53.636719 C 64.292969 53.75 64.691406 53.808594 65.152344 53.808594 C 66.070312 53.808594 66.988281 53.578125 67.789062 53.234375 C 68.59375 52.890625 69.339844 52.433594 70.027344 51.914062 C 70.601562 51.515625 71.34375 50.882812 72.089844 50.136719 L 64.121094 40.617188 C 63.890625 40.730469 63.71875 40.847656 63.546875 40.960938 C 63.375 41.078125 63.203125 41.191406 63.085938 41.304688 C 62.226562 42.050781 61.421875 42.855469 60.679688 43.773438 C 59.933594 44.6875 59.359375 45.605469 59.074219 46.640625 C 59.015625 46.867188 58.957031 47.097656 58.898438 47.328125 C 58.84375 47.613281 58.84375 47.902344 58.84375 48.128906 C 58.84375 48.589844 58.898438 48.992188 59.074219 49.449219 C 59.246094 49.851562 59.472656 50.253906 59.761719 50.652344 Z M 66.125 32.359375 C 66.183594 32.359375 66.242188 32.300781 66.296875 32.300781 C 66.355469 32.242188 66.355469 32.242188 66.472656 32.1875 C 66.527344 32.128906 66.585938 32.128906 66.644531 32.015625 L 66.757812 32.015625 C 67.617188 31.382812 68.476562 30.695312 69.222656 30.007812 C 69.96875 29.320312 70.429688 28.402344 70.714844 27.3125 L 70.714844 26.507812 C 70.714844 25.359375 70.257812 24.386719 69.453125 23.699219 C 68.707031 23.007812 67.789062 22.609375 66.871094 22.4375 L 65.953125 22.4375 C 65.265625 22.492188 64.578125 22.835938 63.890625 23.351562 C 63.257812 23.871094 62.914062 24.613281 62.800781 25.648438 L 62.800781 25.820312 C 62.742188 25.878906 62.742188 25.933594 62.742188 26.050781 L 62.742188 26.222656 C 62.6875 26.277344 62.6875 26.335938 62.6875 26.449219 C 62.6875 27.3125 62.914062 28.171875 63.429688 28.917969 C 63.890625 29.664062 64.464844 30.40625 64.980469 31.097656 C 65.265625 31.324219 65.4375 31.554688 65.609375 31.726562 C 65.78125 31.957031 65.953125 32.1875 66.125 32.359375 Z M 149 28.628906 L 149 30.582031 C 149 35.800781 148.140625 40.730469 146.363281 45.320312 C 144.640625 49.964844 141.257812 53.695312 136.152344 56.503906 C 134.546875 57.59375 132.769531 58.339844 130.820312 58.96875 C 128.871094 59.488281 126.917969 59.945312 125.027344 60.175781 C 124.28125 60.230469 123.652344 60.289062 123.019531 60.289062 C 122.332031 60.289062 121.699219 60.347656 121.070312 60.347656 L 119.921875 60.347656 C 119.578125 60.347656 119.234375 60.289062 118.832031 60.230469 C 114.128906 59.945312 109.597656 58.683594 105.242188 56.390625 C 100.882812 54.152344 97.328125 51.054688 94.632812 47.269531 C 93.3125 45.207031 92.28125 42.96875 91.476562 40.675781 C 90.671875 38.378906 90.101562 36.027344 89.871094 33.621094 C 89.8125 33.160156 89.757812 32.644531 89.699219 32.128906 C 89.699219 31.613281 89.640625 31.097656 89.640625 30.582031 C 89.640625 24.960938 91.132812 19.683594 94 14.636719 C 96.925781 9.53125 101.054688 5.746094 106.332031 3.109375 C 107.476562 2.535156 108.625 2.074219 109.828125 1.730469 C 111.035156 1.386719 112.238281 1.042969 113.5 0.757812 C 114.703125 0.46875 115.851562 0.296875 117.054688 0.183594 C 118.203125 0.0664062 119.40625 0.0117188 120.496094 0.0117188 L 121.355469 0.0117188 C 125.945312 0.125 130.359375 1.214844 134.660156 3.222656 C 138.964844 5.285156 142.691406 8.097656 145.789062 11.652344 L 137.359375 17.789062 C 135.0625 15.496094 132.65625 13.773438 130.015625 12.511719 C 127.4375 11.25 124.683594 10.621094 121.757812 10.621094 C 120.78125 10.621094 119.808594 10.734375 118.832031 10.792969 C 117.800781 10.964844 116.769531 11.136719 115.734375 11.367188 C 111.433594 12.6875 108.164062 15.210938 105.988281 18.878906 C 103.808594 22.550781 102.71875 26.394531 102.71875 30.578125 L 102.71875 31.496094 C 102.773438 31.84375 102.832031 32.128906 102.890625 32.472656 C 102.890625 32.644531 102.890625 32.816406 102.945312 32.929688 C 103.003906 33.105469 103.003906 33.277344 103.003906 33.449219 C 103.0625 33.5625 103.0625 33.734375 103.117188 33.90625 C 103.175781 34.078125 103.175781 34.25 103.175781 34.367188 C 103.921875 38.894531 105.871094 42.453125 109.027344 45.035156 C 112.179688 47.613281 115.621094 49.164062 119.292969 49.679688 C 119.75 49.851562 120.324219 49.910156 120.898438 49.964844 L 122.503906 49.964844 C 126.003906 49.964844 129.097656 49.046875 131.851562 47.15625 C 134.605469 45.261719 135.980469 42.625 135.980469 39.070312 L 136.152344 38.722656 L 121.816406 38.722656 L 121.816406 28.628906 Z M 40.546875 65.566406 L 42.726562 65.566406 C 44.277344 65.566406 45.59375 66.941406 45.59375 68.664062 C 45.59375 70.382812 44.277344 71.761719 42.726562 71.761719 L 40.546875 71.761719 Z M 41.464844 66.3125 L 41.464844 71.015625 L 42.496094 71.015625 C 43.875 71.015625 44.621094 69.867188 44.621094 68.71875 C 44.621094 67.515625 43.875 66.542969 42.726562 66.371094 Z M 49.324219 65.453125 C 51.214844 65.453125 52.707031 66.886719 52.707031 68.664062 C 52.707031 70.441406 51.214844 71.933594 49.324219 71.933594 C 47.429688 71.933594 45.882812 70.441406 45.882812 68.664062 C 45.882812 66.886719 47.429688 65.453125 49.324219 65.453125 Z M 49.324219 66.195312 C 50.699219 66.195312 51.789062 67.285156 51.789062 68.664062 C 51.789062 69.984375 50.699219 71.070312 49.324219 71.070312 C 47.945312 71.070312 46.855469 69.984375 46.855469 68.664062 C 46.855469 67.285156 47.945312 66.195312 49.324219 66.195312 Z M 52.992188 65.566406 L 53.910156 65.566406 L 53.910156 71.015625 L 55.6875 71.015625 L 55.6875 71.761719 L 52.992188 71.761719 Z M 58.613281 65.394531 C 59.300781 65.394531 59.988281 65.625 60.5625 65.96875 L 60.5625 67.113281 C 60.105469 66.542969 59.359375 66.195312 58.613281 66.195312 C 57.238281 66.195312 56.148438 67.285156 56.148438 68.664062 C 56.148438 69.984375 57.238281 71.128906 58.613281 71.128906 C 59.359375 71.128906 60.105469 70.785156 60.5625 70.210938 L 60.5625 71.359375 C 59.988281 71.761719 59.300781 71.933594 58.613281 71.933594 C 56.777344 71.933594 55.230469 70.441406 55.230469 68.664062 C 55.230469 66.886719 56.777344 65.394531 58.613281 65.394531 Z M 61.769531 71.015625 L 64.003906 71.015625 L 64.003906 71.761719 L 60.851562 71.761719 L 60.851562 65.566406 L 64.003906 65.566406 L 64.003906 66.3125 L 61.769531 66.3125 L 61.769531 68.089844 L 64.003906 68.089844 L 64.003906 68.835938 L 61.769531 68.835938 Z M 67.445312 71.359375 C 67.386719 71.472656 67.273438 71.53125 67.101562 71.589844 C 66.988281 71.644531 66.871094 71.703125 66.699219 71.761719 L 66.242188 71.761719 C 66.125 71.703125 66.070312 71.644531 65.953125 71.589844 C 65.898438 71.53125 65.839844 71.417969 65.726562 71.300781 C 65.726562 71.1875 65.667969 71.070312 65.609375 71.015625 L 65.609375 70.84375 L 65.667969 70.84375 L 65.667969 70.726562 C 65.726562 70.554688 65.78125 70.441406 65.898438 70.269531 C 66.070312 70.210938 66.183594 70.097656 66.355469 69.984375 C 66.296875 69.867188 66.183594 69.753906 66.125 69.636719 C 66.070312 69.582031 66.011719 69.464844 66.011719 69.351562 L 66.011719 69.179688 L 66.070312 69.179688 C 66.070312 69.007812 66.183594 68.949219 66.296875 68.835938 C 66.414062 68.722656 66.527344 68.722656 66.644531 68.722656 L 66.757812 68.722656 C 66.929688 68.722656 67.101562 68.777344 67.214844 68.894531 C 67.332031 69.007812 67.386719 69.121094 67.386719 69.351562 C 67.386719 69.523438 67.386719 69.636719 67.273438 69.753906 C 67.101562 69.925781 66.988281 69.984375 66.871094 70.097656 L 67.558594 70.902344 C 67.558594 70.84375 67.617188 70.730469 67.730469 70.671875 C 67.789062 70.554688 67.789062 70.5 67.90625 70.441406 L 68.078125 70.671875 C 68.078125 70.726562 68.019531 70.785156 67.960938 70.84375 C 67.90625 70.902344 67.847656 71.015625 67.789062 71.074219 L 67.730469 71.074219 L 67.730469 71.128906 L 68.191406 71.703125 L 67.789062 71.703125 Z M 66.644531 71.472656 C 66.757812 71.472656 66.871094 71.417969 66.988281 71.359375 L 67.214844 71.128906 L 67.273438 71.128906 L 67.273438 71.070312 L 66.527344 70.210938 C 66.527344 70.269531 66.527344 70.269531 66.472656 70.269531 C 66.355469 70.328125 66.355469 70.382812 66.296875 70.382812 C 66.183594 70.441406 66.183594 70.5 66.125 70.554688 C 66.070312 70.554688 66.070312 70.613281 66.070312 70.671875 L 66.070312 70.726562 C 66.011719 70.785156 66.011719 70.84375 66.011719 70.84375 L 66.011719 70.898438 C 66.011719 71.074219 66.070312 71.1875 66.183594 71.300781 C 66.300781 71.417969 66.414062 71.472656 66.585938 71.472656 Z M 66.355469 69.292969 L 66.355469 69.351562 C 66.355469 69.410156 66.355469 69.464844 66.414062 69.582031 C 66.472656 69.636719 66.527344 69.695312 66.527344 69.753906 C 66.585938 69.753906 66.585938 69.753906 66.644531 69.808594 L 66.699219 69.808594 C 66.816406 69.753906 66.871094 69.753906 66.929688 69.636719 C 66.988281 69.582031 67.042969 69.523438 67.101562 69.410156 L 67.101562 69.351562 C 67.101562 69.238281 67.042969 69.179688 66.988281 69.121094 C 66.929688 69.066406 66.816406 69.007812 66.757812 69.007812 L 66.699219 69.007812 C 66.644531 69.007812 66.527344 69.007812 66.472656 69.121094 C 66.414062 69.121094 66.355469 69.179688 66.355469 69.292969 Z M 73.179688 65.394531 C 74.386719 65.394531 75.476562 66.023438 76.105469 66.941406 L 75.304688 67.34375 C 74.84375 66.65625 74.097656 66.195312 73.179688 66.195312 C 71.804688 66.195312 70.714844 67.285156 70.714844 68.664062 C 70.714844 70.039062 71.804688 71.128906 73.179688 71.128906 C 74.328125 71.128906 75.246094 70.554688 75.359375 69.351562 L 73.351562 69.351562 L 73.351562 68.664062 L 76.335938 68.664062 C 76.335938 68.664062 76.335938 66.769531 76.335938 68.664062 C 76.335938 70.613281 75.246094 71.988281 73.179688 71.988281 C 71.058594 71.988281 69.738281 70.5 69.738281 68.664062 C 69.738281 66.828125 71.289062 65.394531 73.179688 65.394531 Z M 75.820312 71.761719 L 78.34375 65.566406 L 78.972656 65.566406 L 81.496094 71.761719 L 80.523438 71.761719 L 79.832031 69.984375 L 77.484375 69.984375 L 76.792969 71.761719 Z M 77.828125 69.238281 L 78.6875 67 L 79.488281 69.238281 Z M 90.5 71.761719 L 93.023438 65.566406 L 93.65625 65.566406 L 96.179688 71.761719 L 95.203125 71.761719 L 94.515625 69.984375 L 92.164062 69.984375 L 91.476562 71.761719 Z M 92.507812 69.238281 L 93.367188 67 L 94.230469 69.238281 Z M 102.71875 71.761719 L 105.296875 65.566406 L 105.871094 65.566406 L 108.453125 71.761719 L 107.476562 71.761719 L 106.730469 69.984375 L 104.4375 69.984375 L 103.691406 71.761719 Z M 104.78125 69.238281 L 105.585938 67 L 106.445312 69.238281 Z M 83.734375 66.3125 C 84.363281 66.371094 84.59375 66.597656 84.59375 67.230469 C 84.59375 67.859375 84.136719 68.148438 83.617188 68.148438 L 82.816406 68.148438 L 82.816406 66.3125 Z M 83.792969 68.894531 L 83.847656 68.894531 C 84.308594 68.894531 85.109375 69.007812 85.109375 69.984375 C 85.109375 70.84375 84.421875 71.015625 83.734375 71.015625 L 83.847656 71.015625 L 82.816406 71.015625 L 82.816406 68.894531 Z M 82.585938 71.761719 L 84.191406 71.761719 C 85.28125 71.761719 86.085938 71.015625 86.085938 69.984375 C 86.085938 69.179688 85.570312 68.605469 84.878906 68.375 C 85.28125 68.089844 85.511719 67.632812 85.511719 67.113281 C 85.511719 66.195312 84.878906 65.566406 83.964844 65.566406 L 81.839844 65.566406 L 81.839844 71.761719 Z M 88.4375 66.3125 C 89.011719 66.371094 89.238281 66.597656 89.296875 67.230469 C 89.296875 67.859375 88.839844 68.148438 88.320312 68.148438 L 87.519531 68.148438 L 87.519531 66.3125 Z M 88.492188 68.894531 C 88.953125 68.894531 89.753906 69.007812 89.753906 69.984375 C 89.753906 70.84375 89.066406 71.015625 88.378906 71.015625 L 88.550781 71.015625 L 87.519531 71.015625 L 87.519531 68.894531 Z M 87.289062 71.761719 L 88.894531 71.761719 C 89.984375 71.761719 90.730469 71.015625 90.730469 69.984375 C 90.730469 69.179688 90.273438 68.605469 89.582031 68.375 C 89.984375 68.089844 90.214844 67.632812 90.214844 67.113281 C 90.214844 66.195312 89.582031 65.566406 88.664062 65.566406 L 86.542969 65.566406 L 86.542969 71.761719 Z M 96.636719 65.566406 L 97.210938 65.566406 L 101.570312 70.15625 L 101.570312 65.566406 L 102.375 65.566406 L 102.375 71.761719 L 101.742188 71.761719 L 97.5 67.230469 L 97.5 71.761719 L 96.636719 71.761719 Z M 96.636719 65.566406 "/>
</g>
</svg>
