<?xml version="1.0" encoding="UTF-8"?>
<svg xmlns="http://www.w3.org/2000/svg" xmlns:xlink="http://www.w3.org/1999/xlink" width="150px" height="2500px" viewBox="0 0 150 150" version="1.1">
<g id="surface1">
<rect x="0" y="0" width="150" height="150" style="fill:rgb(100%,100%,100%);fill-opacity:1;stroke:none;"/>
<path style=" stroke:none;fill-rule:evenodd;fill:rgb(0%,0%,0%);fill-opacity:1;" d="M 8.117188 47.625 L 5.359375 47.480469 L 4.222656 47.253906 L 3.996094 46.828125 C 3.996094 46.429688 4.28125 46.261719 4.851562 46.261719 L 33.351562 46.261719 C 46.707031 46.261719 56.085938 50.324219 61.542969 58.480469 C 64.667969 63.195312 66.230469 68.792969 66.230469 75.273438 C 66.230469 78.65625 65.71875 81.921875 64.667969 85.078125 C 63.472656 88.402344 61.824219 91.332031 59.695312 93.945312 C 57.363281 96.699219 54.523438 98.832031 51.253906 100.394531 C 47.757812 101.988281 43.835938 102.8125 39.433594 102.8125 L 3.085938 102.8125 C 2.488281 102.8125 2.207031 102.613281 2.207031 102.273438 C 2.207031 101.902344 2.632812 101.703125 3.429688 101.703125 L 10.390625 101.277344 C 11.46875 101.132812 12.238281 100.820312 12.605469 100.394531 L 13.316406 99.402344 C 13.574219 98.71875 13.714844 97.699219 13.746094 96.304688 L 13.746094 51.234375 C 13.746094 49.472656 12.75 48.390625 10.816406 47.964844 Z M 23.460938 48.390625 L 23.261719 49.527344 L 23.261719 99.570312 C 23.261719 100.140625 23.375 100.535156 23.605469 100.679688 L 24.742188 100.851562 L 28.492188 100.851562 L 37.1875 100.535156 C 39.515625 100.28125 41.507812 99.910156 43.070312 99.398438 C 44.625 98.832031 46.082031 98.027344 47.386719 97.015625 C 48.523438 96.078125 49.691406 94.742188 50.96875 93.035156 C 53.101562 90.25 54.636719 86.699219 55.574219 82.351562 C 56.140625 79.511719 56.425781 76.753906 56.425781 74.109375 C 56.425781 71.78125 56.085938 69.28125 55.375 66.578125 C 54.378906 62.6875 52.875 59.277344 50.742188 56.378906 C 46.621094 50.75 39.859375 47.964844 30.507812 47.964844 L 24.738281 47.964844 C 24.085938 47.910156 23.660156 48.050781 23.460938 48.390625 Z M 71.828125 102.382812 C 71.769531 102.042969 72.054688 101.902344 72.679688 101.902344 L 74.671875 101.84375 C 75.75 101.703125 76.402344 101.332031 76.660156 100.765625 L 77.027344 98.71875 L 77.027344 82.207031 C 77.027344 81.582031 76.800781 81.097656 76.375 80.816406 L 74.898438 80.671875 L 72.910156 81.214844 L 71.828125 81.15625 C 71.6875 80.816406 72.113281 80.5 73.105469 80.21875 C 75.464844 79.59375 77.539062 78.796875 79.300781 77.800781 C 80.382812 77.175781 81.148438 76.835938 81.488281 76.695312 L 82.34375 76.609375 C 82.625 76.664062 82.769531 77.234375 82.769531 78.257812 L 82.769531 99.058594 C 82.769531 100.050781 82.996094 100.761719 83.421875 101.1875 C 83.933594 101.699219 85.128906 101.957031 86.976562 101.957031 C 87.628906 101.957031 87.96875 102.097656 88.027344 102.410156 C 88.027344 102.667969 87.828125 102.75 87.484375 102.75 L 72.339844 102.75 C 72 102.753906 71.828125 102.609375 71.828125 102.382812 Z M 138.890625 81.921875 C 137.5 83.375 136.5625 85.078125 136.050781 87.125 L 136.050781 99.203125 C 136.050781 100.28125 136.417969 101.046875 137.1875 101.53125 L 138.921875 101.84375 L 140.738281 102.042969 C 141.167969 102.097656 141.335938 102.183594 141.335938 102.410156 L 141.253906 102.609375 L 140.769531 102.753906 L 125.566406 102.753906 C 125.109375 102.753906 124.855469 102.609375 124.855469 102.382812 L 125.28125 102.042969 L 127.839844 101.84375 C 128.832031 101.671875 129.460938 101.332031 129.800781 100.820312 L 130.226562 99.542969 L 130.226562 82.492188 L 129.941406 81.242188 L 129.460938 80.957031 C 129.316406 80.816406 129.089844 80.730469 128.75 80.671875 C 128.324219 80.648438 127.8125 80.730469 127.273438 80.957031 L 125.824219 81.355469 L 125 81.15625 C 124.855469 80.957031 124.914062 80.816406 125.113281 80.730469 L 126.332031 80.21875 C 129.117188 79.394531 131.363281 78.542969 132.925781 77.664062 L 134.859375 76.609375 L 135.710938 76.667969 L 136.050781 77.378906 L 136.050781 83.628906 C 138.183594 80.164062 139.890625 78.03125 141.054688 77.320312 C 141.765625 76.894531 142.445312 76.554688 142.957031 76.410156 L 143.953125 76.328125 C 144.578125 76.269531 145.289062 76.46875 146.082031 76.980469 C 147.164062 77.605469 147.730469 78.542969 147.789062 79.734375 C 147.847656 80.730469 147.558594 81.5 146.933594 82.09375 C 146.367188 82.578125 145.796875 82.722656 145.289062 82.578125 C 144.804688 82.492188 144.433594 82.292969 144.179688 82.011719 L 143.382812 81.015625 C 142.757812 80.105469 142.164062 79.820312 141.453125 80.078125 C 140.625 80.304688 139.773438 80.929688 138.890625 81.921875 Z M 79.5 58.566406 C 78.449219 58.566406 77.597656 58.933594 76.886719 59.644531 C 76.121094 60.355469 75.75 61.265625 75.804688 62.316406 C 75.75 63.3125 76.117188 64.164062 76.886719 64.875 C 77.597656 65.585938 78.449219 65.953125 79.5 65.953125 C 80.496094 65.953125 81.375 65.582031 82.085938 64.875 C 82.796875 64.164062 83.195312 63.3125 83.195312 62.316406 C 83.195312 61.265625 82.796875 60.355469 82.085938 59.644531 C 81.375 58.933594 80.496094 58.566406 79.5 58.566406 Z M 94.5625 81.242188 C 95.585938 79.878906 96.863281 78.742188 98.398438 77.832031 C 99.761719 77.035156 101.125 76.523438 102.546875 76.269531 L 107.804688 75.957031 C 109.707031 76.042969 111.472656 76.410156 113.0625 77.121094 C 116.898438 78.824219 119.3125 81.953125 120.222656 86.5 C 121.160156 91.101562 120.367188 94.996094 117.863281 98.148438 C 115.734375 100.820312 112.917969 102.527344 109.367188 103.265625 C 105.644531 104.089844 102.179688 103.832031 99.050781 102.554688 C 94.988281 100.90625 92.515625 97.636719 91.71875 92.863281 C 91.007812 88.347656 91.949219 84.507812 94.5625 81.242188 Z M 111.214844 79.964844 C 109.480469 78.03125 107.292969 77.179688 104.648438 77.40625 C 102.09375 77.664062 100.132812 79.082031 98.851562 81.78125 C 97.6875 84.226562 97.261719 87.210938 97.6875 90.734375 C 98 94.230469 99.109375 97.011719 100.898438 99.144531 C 102.800781 101.390625 104.960938 102.328125 107.378906 101.902344 C 109.90625 101.417969 111.753906 100.054688 112.976562 97.78125 C 114.167969 95.453125 114.59375 92.4375 114.3125 88.601562 C 113.972656 84.765625 112.976562 81.921875 111.214844 79.964844 Z M 71.628906 81.214844 L 71.628906 81.496094 L 71.003906 81.097656 L 71.003906 81.242188 L 71.058594 81.496094 L 70.972656 81.496094 L 70.972656 80.957031 L 71.003906 80.957031 L 71.570312 81.382812 L 71.570312 80.957031 L 71.683594 80.957031 Z M 71.628906 81.214844 "/>
<path style=" stroke:none;fill-rule:evenodd;fill:rgb(0%,0%,0%);fill-opacity:1;" d="M 72.679688 81.015625 L 72.339844 81.015625 L 72.339844 81.214844 L 72.625 81.214844 L 72.625 81.242188 L 72.339844 81.242188 L 72.339844 81.441406 L 72.679688 81.441406 L 72.679688 81.5 L 72.253906 81.5 L 72.253906 80.957031 L 72.679688 80.957031 Z M 74.242188 80.957031 L 74.273438 80.957031 L 73.988281 81.496094 L 73.902344 81.496094 L 73.675781 81.070312 L 73.417969 81.496094 L 73.390625 81.496094 C 73.25 81.242188 73.136719 81.070312 73.105469 80.957031 L 73.25 80.957031 L 73.417969 81.382812 L 73.675781 80.957031 L 73.761719 80.957031 L 73.960938 81.382812 L 74.1875 80.957031 Z M 75.039062 81.242188 L 75.097656 81.5 L 74.953125 81.5 L 74.953125 81.300781 L 74.671875 80.957031 L 74.8125 80.957031 L 75.039062 81.242188 L 75.265625 80.957031 L 75.378906 80.957031 Z M 75.835938 81.070312 C 75.890625 81.015625 76.035156 80.957031 76.175781 80.957031 C 76.320312 80.957031 76.402344 81.015625 76.515625 81.070312 C 76.542969 81.101562 76.601562 81.15625 76.601562 81.242188 L 76.515625 81.441406 C 76.402344 81.5 76.316406 81.5 76.175781 81.5 C 76.035156 81.5 75.890625 81.5 75.835938 81.441406 L 75.691406 81.242188 C 75.691406 81.15625 75.75 81.101562 75.835938 81.070312 Z M 76.402344 81.070312 L 76.175781 81.015625 L 75.949219 81.070312 C 75.890625 81.101562 75.835938 81.15625 75.835938 81.242188 C 75.835938 81.300781 75.890625 81.355469 75.949219 81.386719 L 76.175781 81.5 C 76.261719 81.5 76.375 81.441406 76.402344 81.386719 C 76.460938 81.355469 76.515625 81.300781 76.515625 81.242188 C 76.515625 81.15625 76.460938 81.101562 76.402344 81.070312 Z M 77.257812 81.015625 L 77.226562 81.214844 L 77.3125 81.214844 C 77.453125 81.214844 77.539062 81.15625 77.539062 81.101562 C 77.539062 81.070312 77.511719 81.015625 77.367188 81.015625 Z M 77.398438 80.957031 C 77.539062 80.957031 77.652344 81.015625 77.652344 81.101562 L 77.539062 81.214844 L 77.398438 81.242188 L 77.738281 81.496094 L 77.59375 81.496094 L 77.253906 81.242188 L 77.226562 81.242188 L 77.257812 81.496094 L 77.113281 81.496094 L 77.113281 80.957031 Z M 78.820312 80.957031 L 78.449219 81.214844 L 78.820312 81.5 L 78.675781 81.5 L 78.363281 81.242188 L 78.363281 81.214844 L 78.304688 81.242188 L 78.363281 81.5 L 78.222656 81.5 L 78.222656 80.957031 L 78.363281 80.957031 L 78.304688 81.214844 L 78.363281 81.214844 L 78.734375 80.957031 Z M 78.820312 80.957031 "/>
</g>
</svg>
