<?xml version="1.0" encoding="UTF-8"?>
<svg xmlns="http://www.w3.org/2000/svg" xmlns:xlink="http://www.w3.org/1999/xlink" width="150px" height="150px" viewBox="0 0 150 150" version="1.1">
<g id="surface1">
<rect x="0" y="0" width="150" height="150" style="fill:rgb(100%,100%,100%);fill-opacity:1;stroke:none;"/>
<path style=" stroke:none;fill-rule:evenodd;fill:rgb(0%,0%,0%);fill-opacity:1;" d="M 75 100.753906 C 115.203125 100.753906 147.792969 89.222656 147.792969 75 C 147.792969 60.777344 115.203125 49.246094 75 49.246094 C 34.796875 49.246094 2.207031 60.777344 2.207031 75 C 2.207031 89.222656 34.796875 100.753906 75 100.753906 Z M 75 100.753906 "/>
<path style=" stroke:none;fill-rule:evenodd;fill:rgb(100%,100%,100%);fill-opacity:1;" d="M 74.984375 100.242188 C 114.386719 100.242188 146.863281 88.941406 146.863281 75 C 146.863281 61.058594 114.386719 49.757812 74.984375 49.757812 C 35.582031 49.757812 2.960938 61.058594 2.960938 75 C 2.960938 88.941406 35.582031 100.242188 74.984375 100.242188 Z M 74.984375 100.242188 "/>
<path style=" stroke:none;fill-rule:evenodd;fill:rgb(0%,0%,0%);fill-opacity:1;" d="M 142.699219 81.367188 C 139.488281 84.722656 135.597656 86.925781 131.578125 88.707031 C 119.75 93.910156 106.632812 96.363281 93.1875 98.054688 C 71.675781 100.644531 49.535156 98.324219 30.175781 93.167969 C 21.53125 90.734375 12.910156 87.492188 6.769531 80.398438 C 5.480469 78.621094 3.988281 76.839844 4.066406 74.542969 L 4.34375 73.777344 C 4.417969 74.117188 4.597656 74.476562 4.949219 74.679688 C 5.65625 74.996094 6.746094 74.65625 7.175781 75.378906 C 7.476562 76.210938 7.25 77.246094 7.804688 77.988281 C 9.550781 81.390625 13.039062 84.902344 16.855469 86.679688 C 27.066406 92.175781 38.667969 94.652344 50.546875 96.542969 C 67.707031 99.222656 87.449219 98.796875 104.257812 95.734375 C 113.9375 94.023438 123.441406 91.929688 131.984375 87.742188 C 136.027344 85.917969 139.363281 82.265625 141.386719 78.777344 C 142.195312 77.289062 142.851562 75.738281 142.828125 73.914062 C 142.878906 73.710938 142.976562 73.417969 143.28125 73.394531 C 144.015625 73.167969 145.203125 73.6875 145.40625 72.699219 L 145.53125 72.292969 C 147.300781 75.578125 145.152344 78.910156 142.699219 81.367188 Z M 142.699219 81.367188 "/>
<path style=" stroke:none;fill-rule:evenodd;fill:rgb(0%,0%,0%);fill-opacity:1;" d="M 141.890625 73.710938 C 141.96875 76.792969 140.199219 79.25 138.402344 81.660156 C 135.722656 84.945312 131.90625 87.0625 128.042969 88.390625 C 131.503906 86.546875 135.625 84.339844 137.875 80.890625 C 139.316406 78.730469 140.753906 76.546875 140.679688 73.820312 C 141.03125 73.753906 141.488281 73.777344 141.890625 73.710938 Z M 9.121094 75.351562 C 9.726562 79.316406 12.734375 82.71875 16.550781 85.195312 L 19.28125 86.949219 C 14.402344 85.101562 9.421875 80.894531 8.109375 76.277344 L 7.980469 75.171875 Z M 9.121094 75.351562 "/>
<path style=" stroke:none;fill-rule:evenodd;fill:rgb(0%,0%,0%);fill-opacity:1;" d="M 74.910156 96.664062 C 110.578125 96.664062 139.488281 86.679688 139.488281 74.371094 C 139.488281 62.058594 110.578125 52.078125 74.910156 52.078125 C 39.246094 52.078125 10.332031 62.058594 10.332031 74.371094 C 10.332031 86.679688 39.246094 96.664062 74.910156 96.664062 Z M 74.910156 96.664062 "/>
<path style=" stroke:none;fill-rule:evenodd;fill:rgb(100%,100%,100%);fill-opacity:1;" d="M 74.84375 94.917969 C 109.378906 94.917969 137.375 85.769531 137.375 74.480469 C 137.375 63.191406 109.378906 54.039062 74.84375 54.039062 C 40.3125 54.039062 12.316406 63.191406 12.316406 74.480469 C 12.316406 85.769531 40.3125 94.917969 74.84375 94.917969 Z M 74.84375 94.917969 "/>
<path style=" stroke:none;fill-rule:evenodd;fill:rgb(0%,0%,0%);fill-opacity:1;" d="M 74.84375 93.21875 C 108.324219 93.21875 135.464844 84.828125 135.464844 74.480469 C 135.464844 64.128906 108.324219 55.738281 74.84375 55.738281 C 41.367188 55.738281 14.222656 64.128906 14.222656 74.480469 C 14.222656 84.828125 41.367188 93.21875 74.84375 93.21875 Z M 74.84375 93.21875 "/>
<path style=" stroke:none;fill-rule:evenodd;fill:rgb(100%,100%,100%);fill-opacity:1;" d="M 66.25 59.753906 L 76.207031 61.066406 C 81.296875 61.746094 87.21875 61.886719 92.148438 60.738281 C 92.703125 60.71875 93.417969 60.511719 93.855469 60.902344 C 94.085938 61.085938 94.128906 61.335938 94.0625 61.601562 C 93.832031 62.605469 92.609375 63.285156 91.6875 63.777344 C 87.355469 65.992188 81.273438 65.027344 76.617188 64.0625 L 69.085938 62.296875 L 69.0625 62.296875 C 68.992188 62.585938 69.128906 62.957031 68.945312 63.203125 C 66.019531 64.78125 63.324219 67.367188 61.640625 69.957031 C 63.300781 69.894531 65.007812 69.832031 66.597656 69.527344 C 66.367188 68.316406 66.828125 67.183594 67.933594 66.425781 C 68.53125 66.078125 69.292969 65.871094 70.007812 66.035156 C 70.515625 66.199219 70.949219 66.652344 71.089844 67.105469 C 71.34375 68.027344 70.929688 68.890625 70.191406 69.527344 C 69.683594 69.917969 69.132812 70.222656 68.53125 70.410156 L 68.554688 70.46875 C 68.96875 70.796875 69.5 71.046875 69.820312 71.457031 C 69.84375 71.589844 69.800781 71.726562 69.707031 71.824219 C 69.523438 72.011719 69.292969 72.011719 69.039062 72.03125 C 68.1875 71.96875 67.679688 71.210938 67.082031 70.699219 C 65.007812 70.984375 62.863281 71.167969 60.71875 71.332031 L 59.359375 73.058594 L 55.671875 78.191406 C 52.769531 82.089844 48.414062 86.628906 42.585938 85.992188 C 39.867188 85.746094 37.007812 83.960938 36.226562 81.558594 C 35.167969 78.539062 36.894531 75.746094 39.546875 73.921875 C 40.535156 73.304688 41.710938 72.914062 42.976562 73.058594 C 43.253906 73.121094 43.53125 73.304688 43.644531 73.550781 C 43.714844 73.757812 43.714844 74.023438 43.578125 74.167969 C 42.449219 75.132812 40.90625 75.6875 40.121094 76.980469 C 39.476562 77.964844 39.269531 79.503906 40.050781 80.488281 C 41.273438 81.96875 43.554688 82.195312 45.398438 81.660156 C 50.351562 80.121094 53.875 75.398438 57.011719 71.785156 C 55.261719 71.949219 53.53125 72.257812 52.148438 73.242188 C 52.011719 73.304688 51.78125 73.347656 51.621094 73.265625 C 51.410156 73.160156 51.390625 72.957031 51.34375 72.769531 C 51.457031 71.828125 52.632812 71.4375 53.441406 71.128906 C 54.984375 70.59375 56.710938 70.453125 58.371094 70.183594 C 60.742188 67.042969 64.175781 63.882812 67.863281 62.117188 C 61.894531 60.863281 53.070312 59.035156 48.625 64.191406 C 48.046875 64.929688 47.65625 65.875 47.976562 66.816406 C 48.347656 67.515625 49.128906 67.90625 49.960938 67.949219 C 52.265625 67.988281 53.855469 66.242188 55.375 64.785156 C 55.535156 64.683594 55.742188 64.582031 55.972656 64.640625 C 56.160156 64.683594 56.25 64.867188 56.320312 64.988281 C 56.367188 66.449219 55.28125 67.535156 54.339844 68.644531 C 52.402344 70.554688 49.753906 71.847656 46.871094 71.027344 C 45.328125 70.59375 44.222656 69.136719 44.085938 67.742188 C 43.738281 64.929688 45.742188 62.507812 48.414062 61.234375 C 52.492188 59.140625 57.703125 58.894531 62.703125 59.386719 Z M 66.25 59.753906 "/>
<path style=" stroke:none;fill-rule:evenodd;fill:rgb(100%,100%,100%);fill-opacity:1;" d="M 103.117188 82.253906 C 102.957031 82.644531 102.679688 83.113281 102.957031 83.566406 C 103.097656 83.730469 103.28125 83.9375 103.535156 83.976562 C 104.523438 84.058594 105.285156 83.527344 106.066406 83.035156 C 107.449219 82.007812 108.71875 80.714844 110.007812 79.5625 C 110.261719 79.398438 110.492188 79.175781 110.8125 79.234375 C 111.183594 79.359375 111.667969 79.625 111.757812 80.015625 L 111.710938 80.199219 C 109.132812 82.664062 106.480469 86.070312 102.609375 86.398438 C 101.574219 86.460938 100.699219 86.113281 100.078125 85.394531 C 99.664062 84.902344 99.59375 84.242188 99.664062 83.609375 C 97.65625 85.1875 95.167969 86.871094 92.378906 85.785156 C 90.746094 84.921875 90.238281 83.300781 90.355469 81.636719 C 90.445312 81.101562 90.652344 80.609375 90.835938 80.097656 C 89.199219 81.0625 87.382812 82.519531 85.214844 81.699219 C 84.179688 81.265625 83.625 80.304688 83.554688 79.339844 C 83.484375 79.03125 83.578125 78.679688 83.578125 78.394531 L 78.277344 85.867188 L 74.824219 85.847656 C 74.753906 85.804688 74.636719 85.742188 74.660156 85.660156 L 74.753906 85.375 L 80.28125 77.554688 C 80.582031 76.9375 81.089844 76.175781 80.652344 75.460938 C 80.214844 75.109375 79.613281 75.417969 79.175781 75.5625 C 76.851562 76.730469 75.050781 78.949219 73.4375 80.796875 C 71.273438 83.445312 68.300781 86.792969 64.152344 86.113281 C 62.195312 85.910156 60.859375 84.144531 60.441406 82.605469 C 60.441406 82.542969 60.417969 82.480469 60.375 82.460938 C 59.429688 83.179688 58.714844 84.183594 57.679688 84.695312 C 57.511719 84.738281 57.339844 84.738281 57.171875 84.695312 C 56.757812 84.390625 56.640625 83.957031 56.550781 83.527344 C 56.710938 82.992188 57.378906 82.789062 57.769531 82.378906 C 60.652344 79.644531 61.480469 75.582031 65.675781 73.917969 C 66.710938 73.488281 67.816406 73.222656 69.0625 73.242188 C 69.40625 73.242188 69.707031 73.507812 69.84375 73.796875 C 69.976562 73.992188 70.121094 74.296875 69.984375 74.535156 C 69.566406 74.902344 68.945312 74.902344 68.460938 75.109375 C 66.089844 76.074219 63.785156 78.230469 63.578125 80.589844 C 63.484375 81.578125 63.808594 82.5625 64.820312 83.097656 C 66.089844 83.671875 67.585938 83.179688 68.601562 82.417969 C 70.445312 80.917969 71.34375 79.050781 71.597656 76.9375 C 71.664062 76.074219 71.34375 75.355469 71.113281 74.597656 C 71.113281 74.085938 71.6875 73.695312 72.148438 73.488281 C 72.496094 73.34375 73.046875 73.222656 73.394531 73.445312 C 74.199219 74.1875 74.339844 75.191406 74.382812 76.199219 C 74.382812 76.484375 74.40625 76.773438 74.339844 77.039062 C 76.621094 75.296875 78.53125 72.214844 81.875 72.625 C 82.703125 72.726562 83.484375 73.386719 83.671875 74.125 C 83.808594 74.617188 83.742188 75.230469 83.648438 75.703125 C 84.960938 74.144531 86.714844 72.625 89.015625 72.953125 C 89.894531 73.078125 90.789062 73.753906 91.023438 74.535156 C 91.296875 75.457031 90.953125 76.359375 90.238281 77.019531 C 89.730469 77.410156 89.179688 77.65625 88.488281 77.59375 C 87.910156 77.53125 87.378906 77.304688 87.058594 76.8125 C 86.757812 76.382812 86.757812 75.683594 87.058594 75.273438 C 86.296875 75.355469 85.8125 76.136719 85.582031 76.710938 C 85.328125 77.488281 84.960938 78.578125 85.722656 79.277344 C 86.226562 79.933594 87.21875 79.707031 87.933594 79.605469 C 92.519531 78.210938 95.261719 72.707031 100.746094 73.304688 C 101.734375 73.40625 102.726562 73.773438 103.210938 74.65625 C 103.394531 75.027344 103.554688 75.375 103.625 75.785156 L 109.914062 67.042969 L 113.789062 67.289062 Z M 103.117188 82.253906 "/>
<path style=" stroke:none;fill-rule:evenodd;fill:rgb(0%,0%,0%);fill-opacity:1;" d="M 101.390625 75.890625 C 101.851562 76.710938 101.367188 77.65625 101 78.394531 L 101.691406 78.621094 C 100.355469 80.363281 98.972656 82.625 96.597656 83.402344 C 96.066406 83.566406 95.285156 83.609375 94.824219 83.300781 C 94.0625 82.785156 93.992188 81.902344 94.15625 81.101562 C 94.824219 78.679688 96.988281 75.808594 99.984375 75.335938 C 100.582031 75.253906 101.066406 75.5 101.390625 75.890625 Z M 69.707031 66.945312 C 69.984375 67.148438 69.90625 67.53125 69.855469 67.800781 C 69.578125 68.613281 68.644531 69.039062 67.835938 69.265625 C 67.65625 68.320312 67.910156 67.328125 68.871094 66.855469 C 69.125 66.765625 69.503906 66.765625 69.707031 66.945312 Z M 69.707031 66.945312 "/>
</g>
</svg>
