<?xml version="1.0" encoding="UTF-8"?>
<svg xmlns="http://www.w3.org/2000/svg" xmlns:xlink="http://www.w3.org/1999/xlink" width="1000px" height="1000px" viewBox="0 0 1000 1000" version="1.1">
<g id="surface1">
<rect x="0" y="0" width="1000" height="1000" style="fill:rgb(100%,100%,100%);fill-opacity:1;stroke:none;"/>
<path style=" stroke:none;fill-rule:evenodd;fill:rgb(0%,0%,0%);fill-opacity:1;" d="M 122.917969 435 L 20.988281 435 C 20.988281 435 14.714844 435.363281 14.714844 440.9375 L 14.714844 559.609375 C 14.714844 559.609375 14.347656 565.886719 20.652344 565.886719 L 59.738281 565.886719 C 59.738281 565.886719 64.792969 564.503906 64.792969 560.832031 L 64.792969 535.859375 L 139.324219 535.859375 C 139.324219 535.859375 172.8125 532.03125 172.8125 499.21875 L 172.8125 471.640625 C 172.8125 471.667969 172.8125 435 122.917969 435 Z M 123.621094 485.261719 C 123.621094 494.011719 117.683594 494.347656 117.683594 494.347656 L 64.269531 494.347656 L 64.269531 476.535156 C 64.269531 476.535156 106.511719 475.859375 115.574219 475.859375 C 124.660156 475.859375 123.621094 485.261719 123.621094 485.261719 Z M 328.152344 433.621094 L 248.90625 433.621094 C 248.90625 433.621094 195.519531 430.46875 195.519531 480.027344 L 195.519531 520.183594 C 195.519531 520.183594 197.605469 566.953125 238.4375 566.953125 L 327.449219 566.953125 C 327.449219 566.953125 366.535156 571.484375 375.261719 530.285156 L 375.261719 475.15625 C 375.261719 475.15625 376.328125 433.621094 328.152344 433.621094 Z M 324.660156 514.949219 C 324.660156 523.671875 314.167969 524.714844 314.167969 524.714844 L 257.292969 524.714844 C 247.160156 524.714844 246.484375 512.5 246.484375 512.5 L 246.484375 487.003906 C 246.484375 475.832031 261.484375 475.832031 261.484375 475.832031 L 313.488281 475.832031 C 321.875 475.832031 324.660156 486.300781 324.660156 486.300781 Z M 402.5 441.277344 L 402.5 559.609375 C 402.5 559.609375 403.203125 566.066406 408.957031 566.066406 L 530.9375 566.066406 C 530.9375 566.066406 537.472656 565.703125 537.472656 559.53125 L 537.472656 529.582031 C 537.472656 529.582031 538.878906 522.472656 530.390625 522.472656 L 452.761719 522.472656 L 452.761719 441.980469 C 452.761719 441.980469 453.464844 435 445.78125 435 L 409.480469 435 C 409.480469 435 402.5 435 402.5 441.277344 Z M 560.261719 440.234375 L 560.261719 560.3125 C 560.261719 560.3125 559.921875 565.886719 565.832031 565.886719 L 602.839844 565.886719 C 602.839844 565.886719 608.410156 565.207031 608.410156 560.3125 L 608.410156 440.234375 C 608.410156 440.234375 609.113281 434.480469 602.65625 434.480469 L 565.832031 434.480469 C 565.832031 434.480469 560.261719 434.660156 560.261719 440.234375 Z M 638.4375 472.707031 L 638.4375 524.375 C 638.4375 524.375 637.394531 566.589844 690.78125 566.589844 L 771.769531 566.589844 C 771.769531 566.589844 809.816406 566.25 809.816406 526.457031 L 809.816406 512.136719 C 809.816406 512.136719 809.816406 507.96875 804.582031 507.96875 L 765.496094 507.96875 C 765.496094 507.96875 759.738281 510.050781 759.738281 513.722656 C 759.738281 517.371094 759.558594 524.011719 752.917969 524.011719 L 697.082031 524.011719 C 697.082031 524.011719 688.359375 523.308594 688.359375 509.6875 L 688.359375 489.453125 C 688.359375 489.453125 688.699219 475.496094 701.277344 475.496094 L 748.386719 475.496094 C 748.386719 475.496094 758.855469 475.128906 758.855469 482.8125 C 758.855469 490.496094 762.34375 490.15625 766.875 490.15625 L 803.542969 490.15625 C 803.542969 490.15625 808.074219 489.113281 808.074219 483.515625 L 808.074219 465.730469 C 808.074219 465.730469 804.246094 432.917969 763.386719 432.917969 L 687.292969 432.917969 C 687.292969 432.917969 638.4375 433.253906 638.4375 472.707031 Z M 837.058594 440.234375 L 837.058594 559.949219 C 837.058594 559.949219 837.394531 565.730469 842.8125 565.730469 L 979.453125 565.730469 C 979.453125 565.730469 985.285156 564.660156 985.285156 559.871094 L 985.285156 531.328125 C 985.285156 531.328125 984.246094 524.738281 978.699219 524.738281 L 885.910156 524.738281 L 885.910156 518.074219 L 971.769531 518.074219 C 971.769531 518.074219 977.003906 518.074219 977.003906 512.839844 L 977.003906 487.003906 C 977.003906 487.003906 977.34375 480.730469 970.730469 480.730469 L 886.613281 480.730469 L 886.613281 474.089844 L 977.003906 474.089844 C 977.003906 474.089844 983.125 474.089844 983.125 467.996094 L 983.125 439.894531 C 983.125 439.894531 982.058594 434.035156 977.265625 434.035156 L 842.628906 434.035156 C 842.628906 434.035156 837.058594 435.363281 837.058594 440.234375 Z M 837.058594 440.234375 "/>
</g>
</svg>
