<?xml version="1.0" encoding="UTF-8"?>
<svg xmlns="http://www.w3.org/2000/svg" xmlns:xlink="http://www.w3.org/1999/xlink" width="100px" height="100px" viewBox="0 0 100 100" version="1.1">
<g id="surface1">
<rect x="0" y="0" width="100" height="100" style="fill:rgb(100%,100%,100%);fill-opacity:1;stroke:none;"/>
<path style=" stroke:none;fill-rule:evenodd;fill:rgb(0%,0%,0%);fill-opacity:1;" d="M 96.671875 36.269531 C 95.644531 36.269531 94.808594 37.101562 94.808594 38.128906 C 94.808594 39.15625 95.644531 39.992188 96.671875 39.992188 C 97.167969 39.988281 97.640625 39.792969 97.988281 39.441406 C 98.335938 39.09375 98.53125 38.617188 98.527344 38.125 C 98.527344 37.097656 97.699219 36.269531 96.671875 36.269531 Z M 96.671875 39.765625 C 96.238281 39.769531 95.820312 39.59375 95.511719 39.285156 C 95.207031 38.976562 95.035156 38.558594 95.035156 38.125 C 95.035156 37.691406 95.207031 37.277344 95.515625 36.96875 C 95.824219 36.664062 96.238281 36.492188 96.671875 36.492188 C 97.574219 36.492188 98.304688 37.222656 98.304688 38.125 C 98.308594 38.558594 98.136719 38.976562 97.832031 39.285156 C 97.523438 39.59375 97.105469 39.765625 96.671875 39.765625 Z M 96.671875 39.765625 "/>
<path style=" stroke:none;fill-rule:evenodd;fill:rgb(0%,0%,0%);fill-opacity:1;" d="M 97.628906 37.636719 C 97.628906 37.460938 97.550781 37.277344 97.394531 37.191406 C 97.238281 37.097656 97.0625 37.085938 96.886719 37.085938 L 95.980469 37.085938 L 95.980469 39.167969 L 96.234375 39.167969 L 96.234375 38.207031 L 96.703125 38.207031 L 97.296875 39.167969 L 97.597656 39.167969 L 96.972656 38.207031 C 97.339844 38.199219 97.628906 38.046875 97.628906 37.636719 Z M 96.625 38.007812 L 96.234375 38.007812 L 96.234375 37.269531 L 96.828125 37.269531 C 97.089844 37.269531 97.371094 37.308594 97.371094 37.632812 C 97.371094 38.058594 96.917969 38.007812 96.625 38.007812 Z M 34.339844 68.832031 L 22.207031 62.90625 C 21.941406 62.769531 21.804688 62.417969 21.808594 62.183594 L 21.84375 58.914062 C 21.847656 58.683594 21.894531 58.449219 22.195312 58.230469 C 23.492188 57.402344 27.507812 55.179688 31.660156 49.125 C 37.183594 41.058594 31.660156 34.285156 23.019531 36.128906 C 15.351562 37.765625 7.542969 41.917969 4.152344 44.175781 C 1.136719 46.191406 1.554688 48.621094 1.472656 50.800781 C 1.636719 51.722656 1.972656 51.640625 2.730469 50.71875 C 8.347656 45.519531 16.902344 41.578125 18.492188 40.90625 C 20.085938 40.238281 23.859375 37.972656 28.304688 38.980469 C 32.574219 39.945312 31.535156 45.75 30.230469 48.203125 C 28.808594 50.886719 24.738281 54.785156 22.894531 55.75 C 22.195312 56.113281 21.933594 55.75 21.933594 55.160156 L 22.226562 42.542969 C 22.226562 41.703125 21.847656 41.324219 21.011719 41.621094 L 19.667969 42.289062 C 18.746094 42.835938 18.785156 43.042969 18.703125 43.714844 L 18.5 58.265625 C 18.492188 58.578125 18.347656 58.832031 18.175781 58.90625 L 13.796875 61.367188 C 12.792969 61.871094 13.042969 62.625 13.796875 62.878906 L 17.320312 64.550781 C 18.160156 64.886719 18.410156 65.140625 18.410156 65.980469 L 18.285156 73.023438 C 21.429688 72.394531 21.636719 70.882812 21.722656 69.878906 L 21.722656 67.738281 C 21.804688 67.238281 22.097656 67.066406 22.519531 67.152344 L 32.746094 72.097656 C 33.671875 72.519531 34.175781 72.351562 34.847656 71.175781 C 35.515625 70.003906 35.597656 69.417969 34.339844 68.832031 Z M 52.21875 51.058594 C 50.796875 51.878906 50.140625 53.414062 50.699219 54.386719 C 51.261719 55.355469 52.949219 55.519531 54.371094 54.695312 C 55.796875 53.875 56.410156 52.378906 55.851562 51.410156 C 55.292969 50.441406 53.640625 50.238281 52.21875 51.058594 Z M 52.21875 51.058594 "/>
<path style=" stroke:none;fill-rule:evenodd;fill:rgb(0%,0%,0%);fill-opacity:1;" d="M 46.972656 52.101562 C 46.589844 52.574219 45.839844 54.011719 45.421875 54.890625 C 45.003906 55.769531 44.121094 57.761719 43.242188 57.761719 C 42.3125 57.761719 42.195312 55.457031 42.195312 54.617188 C 42.195312 53.777344 41.691406 53.652344 41.441406 53.695312 C 41.1875 53.738281 40.472656 53.988281 40.265625 54.871094 C 40.054688 55.75 38.925781 59.566406 37.667969 59.566406 C 36.871094 59.566406 36.28125 57.261719 36.238281 56.546875 C 36.199219 55.832031 35.863281 55.246094 35.152344 55.246094 C 34.644531 55.246094 34.019531 55.496094 33.765625 55.792969 C 33.515625 56.085938 33.472656 56.546875 32.128906 56.253906 C 30.914062 56.210938 29.742188 56.839844 28.316406 59.230469 C 27.457031 60.667969 26.761719 63.347656 28.066406 64.429688 C 29.28125 65.433594 31.417969 63.632812 32.046875 62.878906 C 32.675781 62.121094 33.222656 61.578125 33.472656 61.160156 C 33.722656 60.738281 33.976562 60.78125 34.101562 61.199219 C 34.226562 61.621094 34.941406 63.253906 35.863281 63.214844 C 36.785156 63.171875 37.960938 62.457031 39.34375 60.027344 C 39.597656 59.523438 39.972656 59.566406 40.058594 59.984375 C 40.140625 60.402344 40.683594 61.789062 41.605469 61.789062 C 42.488281 61.789062 43.464844 60.386719 43.957031 59.566406 C 44.292969 59 44.792969 59.273438 44.792969 59.816406 C 44.792969 60.363281 44.542969 73.234375 44.542969 73.234375 C 44.542969 73.820312 44.773438 73.988281 45.191406 73.988281 L 47.015625 73.988281 C 47.351562 73.988281 47.644531 73.695312 47.644531 73.234375 L 48.019531 52.375 C 48.023438 51.871094 47.457031 51.515625 46.972656 52.101562 Z M 32.71875 60.320312 C 32.339844 60.949219 31.335938 62.625 30.457031 62.332031 C 29.996094 62.082031 30.609375 60.402344 30.917969 59.816406 C 31.378906 58.9375 32.730469 57.535156 33.347656 57.886719 C 33.933594 58.222656 33.097656 59.691406 32.71875 60.320312 Z M 96.601562 47.460938 C 96.433594 47.605469 96.160156 47.859375 95.554688 47.585938 C 94.503906 47.167969 94.421875 45.195312 93.878906 43.394531 C 93.386719 41.773438 92.207031 41.875 91.78125 42.617188 L 90.503906 44.671875 C 90.269531 45.089844 89.769531 46.054688 89.265625 46.054688 C 88.679688 46.054688 88.941406 45.214844 88.972656 44.378906 C 88.992188 43.8125 88.636719 43.097656 88.050781 43.097656 C 87.378906 43.097656 86.667969 44.125 86.121094 45.300781 C 85.738281 46.121094 84.757812 49.261719 83.519531 49.261719 C 82.722656 49.261719 82.640625 46.957031 82.597656 46.246094 C 82.558594 45.53125 82.304688 44.652344 81.59375 44.652344 C 81.113281 44.652344 80.796875 44.902344 80.542969 45.195312 C 80.292969 45.488281 80.253906 45.738281 79.371094 45.613281 C 78.15625 45.574219 76.144531 46.707031 74.714844 49.09375 C 73.859375 50.535156 72.824219 53.550781 74.128906 54.628906 C 75.347656 55.636719 77.527344 53.285156 78.15625 52.535156 C 78.785156 51.777344 79.328125 51.230469 79.582031 50.816406 C 79.832031 50.394531 80.082031 50.4375 80.207031 50.855469 C 80.335938 51.277344 81.046875 52.910156 81.972656 52.867188 C 82.894531 52.824219 83.648438 52.617188 85.03125 50.183594 C 85.28125 49.683594 85.746094 49.621094 85.828125 50.039062 C 85.910156 50.457031 85.996094 51.566406 86.875 51.566406 C 88.386719 51.566406 90.097656 47.894531 90.523438 47.039062 C 90.902344 46.285156 91.507812 46.496094 91.71875 47.058594 C 92.019531 47.871094 92.285156 50.480469 93.917969 50.480469 C 95.554688 50.480469 96.664062 48.738281 97 48.191406 C 97.378906 47.648438 97.183594 46.953125 96.601562 47.460938 Z M 78.824219 49.976562 C 78.449219 50.605469 77.609375 51.988281 76.730469 51.695312 C 76.269531 51.441406 76.839844 50.226562 77.148438 49.640625 C 77.609375 48.761719 78.960938 47.335938 79.582031 47.691406 C 80.167969 48.027344 79.203125 49.347656 78.824219 49.976562 Z M 70.726562 47.777344 C 70.726562 47.777344 67.160156 45.175781 66.15625 44.003906 C 65.480469 43.214844 65.945312 42.621094 66.363281 42.285156 C 68.878906 40.609375 72.820312 38.011719 74.371094 33.984375 C 75.867188 30.105469 73.535156 26.730469 71.855469 26.183594 C 69.558594 25.441406 64.6875 26.941406 62.253906 31.46875 C 60.679688 34.402344 59.949219 35.367188 59.738281 43.332031 C 59.699219 44.84375 59.65625 46.5625 59.65625 48.449219 C 59.65625 50.335938 59.449219 55.449219 59.238281 56.414062 C 58.441406 58.679688 60.832031 57.339844 61.917969 56.457031 C 63.011719 55.574219 62.925781 54.253906 62.925781 53.691406 C 62.925781 52.976562 62.96875 40.398438 63.347656 37.589844 C 63.582031 35.84375 63.847656 32.601562 65.691406 29.792969 C 67.539062 26.980469 69.425781 28.113281 69.925781 28.574219 C 70.433594 29.035156 71.144531 30.210938 70.765625 32.601562 C 70.179688 36.308594 65.902344 40.355469 64.8125 41.613281 C 63.722656 42.871094 63.972656 43.964844 64.605469 44.84375 C 65.050781 45.46875 66.152344 46.6875 67.285156 47.820312 C 68.417969 48.953125 68.292969 49.957031 68.125 50.714844 C 67.535156 52.976562 61.417969 59.097656 61.417969 59.097656 C 60.117188 60.480469 61.457031 62.746094 61.917969 63.5 C 62.378906 64.253906 62.96875 64.003906 63.34375 63.375 C 64.855469 60.566406 71.355469 53.773438 71.355469 53.773438 C 73.242188 51.382812 72.445312 49.078125 70.726562 47.777344 Z M 70.726562 47.777344 "/>
</g>
</svg>
